<?xml version="1.0" standalone="no"?>
<!DOCTYPE svg PUBLIC "-//W3C//DTD SVG 20010904//EN"
 "http://www.w3.org/TR/2001/REC-SVG-20010904/DTD/svg10.dtd">
<svg version="1.0" xmlns="http://www.w3.org/2000/svg"
 width="170.000000pt" height="170.000000pt" viewBox="0 0 170.000000 170.000000"
 preserveAspectRatio="xMidYMid meet">

<g transform="translate(0.000000,170.000000) scale(0.100000,-0.100000)"
fill="#000000" stroke="none">
<path d="M430 1218 c0 -30 27 -50 74 -55 l47 -6 -20 -21 c-12 -12 -24 -36 -27
-54 -4 -21 -12 -32 -24 -32 -9 0 -25 -9 -35 -20 -17 -19 -16 -19 11 -17 41 3
45 -35 8 -74 -15 -16 -22 -29 -15 -29 7 0 9 -4 6 -10 -8 -13 -8 -13 40 5 42
15 128 18 180 6 23 -5 37 -1 63 17 30 23 32 27 32 91 0 84 -13 131 -46 162
-24 22 -33 24 -144 25 -82 0 -124 4 -134 13 -13 11 -16 11 -16 -1z m190 -153
l0 -105 -25 0 c-22 0 -24 3 -15 19 5 11 10 50 10 86 0 58 11 105 25 105 3 0 5
-47 5 -105z m92 59 c17 -37 4 -56 -39 -52 -35 3 -38 6 -41 36 -5 54 2 63 38
50 18 -6 36 -21 42 -34z m-132 -46 c-3 -46 -9 -89 -13 -96 -12 -17 -87 -72
-100 -72 -5 0 10 17 34 38 42 38 43 40 47 113 4 67 14 99 31 99 3 0 4 -37 1
-82z m121 -18 c11 7 19 7 19 1 0 -5 3 -16 6 -24 4 -12 -6 -16 -45 -18 -50 -4
-51 -3 -51 23 0 25 2 27 26 18 17 -7 32 -7 45 0z m13 -56 c19 -7 22 -54 4 -54
-49 1 -88 14 -88 30 0 26 45 39 84 24z"/>
<path d="M1020 1190 c0 -11 2 -20 5 -20 2 0 9 9 15 20 9 16 8 20 -5 20 -8 0
-15 -9 -15 -20z"/>
<path d="M1070 1203 c0 -5 5 -14 11 -20 7 -7 10 -52 8 -132 -4 -114 -3 -121
17 -132 16 -8 27 -8 45 2 l24 12 -23 10 c-21 10 -22 16 -22 123 0 89 3 116 16
128 18 18 3 21 -27 5 -15 -7 -24 -7 -35 2 -8 6 -14 7 -14 2z"/>
<path d="M833 1123 c-25 -5 -28 -15 -12 -44 8 -15 6 -27 -10 -53 -25 -40 -27
-74 -5 -104 l15 -22 31 24 31 24 17 -20 c14 -18 19 -19 38 -7 12 8 22 17 22
22 0 4 -4 6 -9 3 -21 -13 -30 100 -11 148 7 20 6 25 -8 24 -9 0 -30 2 -47 5
-16 3 -40 3 -52 0z m45 -33 c7 0 12 -13 12 -30 0 -28 -2 -29 -24 -19 -13 6
-29 23 -35 36 -11 24 -10 25 11 19 13 -3 29 -6 36 -6z m-14 -60 c32 -12 37
-63 8 -79 -27 -14 -42 5 -42 51 0 42 -1 42 34 28z"/>
<path d="M985 1117 c-12 -10 -14 -16 -7 -21 8 -5 12 -38 12 -90 0 -100 13
-120 51 -80 18 20 20 24 5 18 -16 -6 -18 0 -15 77 4 106 -5 125 -46 96z"/>
<path d="M1184 1109 c-14 -15 -15 -20 -4 -17 24 5 26 -136 3 -179 -13 -25 -15
-37 -7 -51 15 -23 67 -28 84 -8 14 18 0 22 -17 5 -7 -7 -23 -9 -37 -5 -45 11
-32 41 34 81 33 20 69 48 80 62 23 30 27 90 6 118 -13 18 -14 18 -44 -3 -37
-27 -38 -27 -45 -2 -7 26 -29 26 -53 -1z m110 -35 c11 -30 6 -61 -15 -88 -11
-14 -25 -26 -30 -26 -13 0 -11 104 3 118 17 17 35 15 42 -4z"/>
<path d="M317 819 c-46 -40 -46 -40 -49 -111 -3 -78 -18 -97 -38 -48 -18 45
-6 98 32 137 17 18 27 33 20 33 -21 0 -81 -69 -93 -108 -16 -53 2 -112 45
-150 64 -56 154 -50 216 13 38 39 34 46 -8 15 -15 -11 -42 -23 -59 -26 l-33
-6 0 71 0 71 40 0 c29 0 42 5 50 20 9 18 8 20 -17 20 l-27 0 37 38 c20 21 37
40 37 43 0 3 -16 6 -35 7 -19 1 -43 6 -53 11 -14 8 -28 1 -65 -30z m23 -124
c0 -106 -1 -115 -19 -115 -10 0 -29 8 -41 18 l-21 17 25 24 c23 22 26 33 26
91 0 65 4 80 22 80 4 0 8 -52 8 -115z m58 107 c23 -7 23 -7 -12 -41 l-36 -35
0 42 c0 44 4 46 48 34z"/>
<path d="M1315 791 c-3 -5 -1 -12 5 -16 24 -15 -5 -27 -49 -21 -42 5 -50 3
-78 -23 l-32 -29 -24 31 -24 31 -42 -18 -41 -19 0 -68 c0 -37 -3 -74 -6 -82
-3 -10 5 -18 27 -26 44 -15 50 -14 84 14 29 24 29 25 4 14 -20 -8 -32 -8 -48
0 -33 18 -24 43 27 78 41 28 47 31 50 15 2 -9 14 -26 28 -37 l24 -21 -30 -34
c-37 -44 -37 -51 -1 -37 22 8 36 8 55 -1 17 -7 27 -8 32 -1 3 6 17 14 30 19
20 8 24 16 24 54 0 34 -5 47 -22 58 l-23 15 28 36 c15 20 27 45 27 56 0 22
-14 28 -25 12z m-206 -85 l22 -24 -30 -22 -31 -21 0 45 c0 52 7 56 39 22z
m167 8 c19 7 17 -5 -6 -33 -26 -30 -50 -21 -50 19 0 28 2 30 21 20 11 -7 27
-9 35 -6z m14 -114 c0 -27 -2 -29 -25 -20 -14 5 -33 6 -42 3 -17 -7 -17 -5 -2
17 8 14 19 31 23 38 13 22 46 -5 46 -38z"/>
<path d="M1497 793 c-4 -3 -2 -12 4 -19 16 -19 -11 -28 -56 -20 -51 10 -95
-24 -95 -74 0 -30 5 -39 26 -49 l25 -11 -30 -39 c-38 -48 -38 -52 -2 -38 22 8
36 8 55 -1 17 -7 27 -8 32 -1 3 6 17 14 30 19 20 8 24 16 24 54 0 40 -4 47
-28 60 -26 13 -31 13 -44 -1 -21 -21 -38 -8 -38 28 0 27 2 29 21 19 11 -7 27
-9 34 -6 9 3 12 0 8 -10 -9 -25 4 -15 31 24 14 21 26 46 26 55 0 17 -11 22
-23 10z m-27 -193 c0 -28 -2 -29 -27 -19 -14 5 -32 8 -40 5 -18 -7 -16 0 9 34
17 23 25 27 40 19 11 -6 18 -21 18 -39z"/>
<path d="M498 746 c-18 -13 -26 -32 -9 -22 9 6 43 -28 61 -62 18 -37 -5 -86
-37 -77 -27 6 -45 -21 -22 -36 25 -16 35 -10 56 33 l20 43 16 -30 c8 -17 24
-38 34 -48 19 -16 21 -16 38 3 31 34 48 26 43 -20 -3 -31 0 -39 10 -35 7 2 25
-3 40 -12 17 -10 22 -12 15 -3 -7 8 -13 26 -13 41 0 22 4 26 19 22 11 -3 33 5
50 18 29 21 31 27 31 89 0 65 -17 110 -42 110 -7 0 -22 -9 -34 -21 l-22 -21
-11 21 c-14 25 -34 27 -51 6 -9 -10 -9 -15 -1 -15 7 0 11 -24 11 -68 0 -57 -3
-69 -20 -80 -26 -16 -34 -11 -66 44 -23 39 -25 49 -15 70 8 19 16 24 31 19 24
-8 40 22 19 36 -22 14 -27 11 -47 -27 l-19 -36 -21 36 c-23 38 -37 43 -64 22z
m302 -97 c0 -68 -3 -75 -34 -63 -19 7 -23 113 -5 131 26 26 39 2 39 -68z"/>
<path d="M874 739 c-14 -15 -15 -20 -4 -17 12 2 16 -11 18 -60 2 -35 -2 -70
-8 -77 -8 -9 -4 -17 15 -29 28 -19 56 -14 77 11 7 10 8 14 1 10 -6 -4 -18 -4
-27 -1 -12 5 -16 21 -16 68 0 69 15 97 36 68 12 -16 14 -16 31 1 16 16 16 18
1 33 -14 15 -18 15 -40 0 -23 -15 -27 -15 -38 -1 -16 20 -23 19 -46 -6z"/>
</g>
</svg>
